<?xml version="1.0" encoding="utf-8"?>
<!-- Generator: Adobe Illustrator 22.1.0, SVG Export Plug-In . SVG Version: 6.00 Build 0)  -->
<svg version="1.1" id="Layer_1" xmlns="http://www.w3.org/2000/svg" xmlns:xlink="http://www.w3.org/1999/xlink" x="0px" y="0px"
	 viewBox="0 0 1366 768" style="enable-background:new 0 0 1366 768;" xml:space="preserve">
<style type="text/css">
	.st0{display:none;}
	.st1{fill:#FFFFFF;}
	.st2{fill:#00AEEF;}
	.st3{fill:#29ABE2;}
	.st4{fill:none;stroke:#FFFFFF;stroke-width:3;stroke-miterlimit:10;}
</style>
<rect class="st0" width="1366" height="768"/>
<g>
	<rect x="-1326.4" y="1038.1" class="st1" width="2.8" height="13.9"/>
	<polygon class="st1" points="-1300.9,1038.1 -1300.9,1052.1 -1303.7,1052.1 -1310,1042.5 -1310,1052.1 -1312.8,1052.1 
		-1312.8,1038.1 -1310,1038.1 -1303.7,1047.7 -1303.7,1038.1 	"/>
	<polygon class="st1" points="-1280.6,1038.1 -1277.6,1038.1 -1282.7,1052.1 -1286.1,1052.1 -1291.2,1038.1 -1288.2,1038.1 
		-1284.4,1049.2 	"/>
	<rect x="-1267.9" y="1038.1" class="st1" width="2.8" height="13.9"/>
	<polygon class="st1" points="-1246.3,1040.4 -1251.6,1040.4 -1251.6,1043.9 -1246.9,1043.9 -1246.9,1046.1 -1251.6,1046.1 
		-1251.6,1049.8 -1246.3,1049.8 -1246.3,1052.1 -1254.4,1052.1 -1254.4,1038.1 -1246.3,1038.1 	"/>
	<path class="st1" d="M-1230.5,1038.1c3.4,0,5,1.9,5,4.3c0,1.7-0.9,3.4-3.2,4l3.3,5.7h-3.2l-3.1-5.4h-1.3v5.4h-2.8v-13.9H-1230.5z
		 M-1230.6,1040.5h-2.3v4.1h2.3c1.6,0,2.3-0.8,2.3-2.1C-1228.4,1041.2-1229.1,1040.5-1230.6,1040.5"/>
	<polygon class="st1" points="-1215.7,1038.1 -1205.5,1038.1 -1205.5,1040.4 -1209.2,1040.4 -1209.2,1052.1 -1212,1052.1 
		-1212,1040.4 -1215.7,1040.4 	"/>
	<polygon class="st1" points="-1187.4,1040.4 -1192.6,1040.4 -1192.6,1043.9 -1187.9,1043.9 -1187.9,1046.1 -1192.6,1046.1 
		-1192.6,1049.8 -1187.4,1049.8 -1187.4,1052.1 -1195.4,1052.1 -1195.4,1038.1 -1187.4,1038.1 	"/>
	<polygon class="st1" points="-1165.2,1038.1 -1162.1,1038.1 -1159.1,1044.5 -1156.1,1038.1 -1153,1038.1 -1157.7,1047.2 
		-1157.7,1052.1 -1160.5,1052.1 -1160.5,1047.2 	"/>
	<path class="st1" d="M-1122.1,1049.4h-5.6l-0.9,2.7h-2.9l5-14h3.3l5,14h-3L-1122.1,1049.4z M-1124.9,1041.4l-2,5.8h4
		L-1124.9,1041.4z"/>
	<polygon class="st1" points="-1099.6,1046.2 -1105.5,1046.2 -1105.5,1052.1 -1108.3,1052.1 -1108.3,1038.1 -1105.5,1038.1 
		-1105.5,1043.9 -1099.6,1043.9 -1099.6,1038.1 -1096.8,1038.1 -1096.8,1052.1 -1099.6,1052.1 	"/>
	<path class="st1" d="M-1079.5,1052.2c-3.9,0-7.2-3-7.2-7.2c0-4.2,3.2-7.1,7.2-7.1c4,0,7.1,3,7.1,7.1
		C-1072.4,1049.3-1075.6,1052.2-1079.5,1052.2 M-1079.5,1049.7c2.5,0,4.3-1.8,4.3-4.7c0-2.8-1.7-4.6-4.3-4.6c-2.5,0-4.3,1.8-4.3,4.6
		C-1083.8,1047.9-1082.1,1049.7-1079.5,1049.7"/>
	<path class="st1" d="M-1057.1,1038.1c3.4,0,5,1.9,5,4.3c0,1.7-0.9,3.4-3.2,4l3.3,5.7h-3.2l-3.1-5.4h-1.3v5.4h-2.8v-13.9H-1057.1z
		 M-1057.2,1040.5h-2.3v4.1h2.3c1.6,0,2.3-0.8,2.3-2.1C-1054.9,1041.2-1055.6,1040.5-1057.2,1040.5"/>
	<path class="st1" d="M-1036.3,1038.1c3.4,0,5,1.9,5,4.3c0,1.7-0.9,3.4-3.2,4l3.3,5.7h-3.2l-3.1-5.4h-1.3v5.4h-2.8v-13.9H-1036.3z
		 M-1036.4,1040.5h-2.3v4.1h2.3c1.6,0,2.3-0.8,2.3-2.1C-1034.1,1041.2-1034.8,1040.5-1036.4,1040.5"/>
	<path class="st1" d="M-1012.2,1049.4h-5.6l-0.9,2.7h-2.9l5-14h3.3l5,14h-3L-1012.2,1049.4z M-1015,1041.4l-2,5.8h4L-1015,1041.4z"
		/>
	<path class="st2" d="M-1436,981.8v44.8h19.9v-44.7h0c0,0,0-0.1,0-0.1c0-0.1,0-0.1,0-0.2c0.1-9.1,7.5-16.5,16.7-16.5
		c9.2,0,16.7,7.5,16.7,16.7h0v44.8h19.9v-44.8v0c0-20.2-16.4-36.6-36.6-36.6C-1419.6,945.2-1436,961.5-1436,981.8"/>
	<path class="st2" d="M-1333.1,1026.7v-44.8h-19.9v44.7h0c0,0,0,0.1,0,0.1c0,0.1,0,0.1,0,0.2c-0.1,9.1-7.5,16.5-16.7,16.5
		c-9.2,0-16.7-7.5-16.7-16.7h0v-44.8h-19.9v44.8v0c0,20.2,16.4,36.6,36.6,36.6C-1349.5,1063.3-1333.1,1047-1333.1,1026.7"/>
	<polygon class="st2" points="-1291.8,992.3 -1291.8,981.9 -1326.3,981.9 -1326.3,1031.1 -1291.8,1031.1 -1291.8,1020.6 
		-1314.5,1020.6 -1314.5,1010.5 -1295.5,1010.5 -1295.5,1002.6 -1314.5,1002.6 -1314.5,992.3 	"/>
	<path class="st2" d="M-1261.1,981.8v31.3c0,2-0.8,3.7-2.3,5c-2.7,2.4-7.1,2.5-9.9,0c-1.5-1.3-2.3-3.1-2.3-5v-31.3h-11.8v32.1
		c0,2.5,0.5,4.7,1.5,6.8c1,2.2,2.4,4.1,4.1,5.7c1.7,1.6,3.7,2.9,6.1,3.9c4.6,1.9,10.2,1.9,14.7,0c2.3-0.9,4.4-2.3,6.1-3.9
		c1.7-1.6,3.1-3.5,4.1-5.7c1-2.1,1.5-4.4,1.5-6.8v-32.1H-1261.1z"/>
	<path class="st2" d="M-1147.2,996.5c-1.4-3.1-3.3-5.9-5.7-8.2c-2.4-2.3-5.3-4.2-8.6-5.5c-3.3-1.4-6.8-2-10.5-2
		c-3.8,0-7.3,0.7-10.6,2c-3.3,1.4-6.2,3.2-8.6,5.5c-2.4,2.3-4.3,5-5.8,8.2c-1.4,3.1-2.1,6.4-2.1,9.9c0,3.5,0.7,6.9,2.1,9.9
		c1.4,3.1,3.3,5.9,5.8,8.2c2.4,2.3,5.3,4.2,8.5,5.5c6.5,2.6,14.5,2.7,21.1,0c3.3-1.3,6.2-3.2,8.6-5.5c2.4-2.3,4.4-5.1,5.8-8.2
		c1.4-3.1,2.1-6.4,2.1-9.9C-1145.1,1003-1145.8,999.6-1147.2,996.5 M-1158.5,1011.8c-0.8,1.7-1.8,3.2-3.2,4.5
		c-1.3,1.2-2.9,2.2-4.6,2.9c-1.8,0.7-3.7,1.1-5.7,1.1c-2,0-3.9-0.4-5.6-1.1c-1.8-0.7-3.3-1.7-4.6-3c-1.3-1.2-2.3-2.7-3.1-4.4
		c-0.8-1.8-1.2-3.6-1.2-5.6c0-1.9,0.4-3.8,1.2-5.6c0.8-1.7,1.8-3.2,3.1-4.4c1.3-1.2,2.8-2.3,4.6-3c3.6-1.5,7.7-1.5,11.3,0
		c1.7,0.7,3.3,1.7,4.6,2.9c1.4,1.3,2.4,2.8,3.2,4.5c0.8,1.7,1.1,3.6,1.1,5.5C-1157.3,1008.2-1157.7,1010-1158.5,1011.8"/>
	<path class="st2" d="M-1200.7,1023.5c-0.9,0.5-1.9,0.9-2.9,1.2c-2.4,0.7-4.5,0.7-6.4,0l-0.2-0.1c-2.3-1.1-4.1-2.3-5.3-3.5l-2.6-2.6
		l3-2.2c1.9-1.4,3.6-3.3,5-5.4c1.4-2.1,2.2-4.3,2.5-6.9l0.7,0l-0.7-0.1c0.2-0.8,0.2-1.8,0.2-2.9c0-2.3-0.4-4.5-1.2-6.6
		c-0.8-2.1-2-4.1-3.5-5.7c-1.5-1.7-3.3-3.1-5.4-4.3c-2-1.1-4.3-1.9-6.6-2.3l-0.3,0c-0.8-0.1-1.8-0.2-3-0.2h-17.4v49.3h11.8v-15.2
		l6.4,7.3c1.2,1.5,2.8,3.1,4.7,5c1.7,1.7,3.8,3.2,6.2,4.5c1.1,0.6,2.4,1.1,3.9,1.4c2.7,0.6,5.9,0.7,9.6,0.3c1.5-0.1,2.9-0.4,4.4-0.8
		c1.4-0.4,2.7-0.9,4-1.4c0.1,0,0.2-0.1,0.3-0.1L-1200.7,1023.5z M-1221.7,1006.2c-1.4,1.4-3.3,2.1-5.3,2.1h-6v-14.9h6
		c2.1,0,3.9,0.7,5.3,2.1c1.4,1.4,2.2,3.2,2.2,5.3C-1219.5,1003-1220.3,1004.8-1221.7,1006.2"/>
	<path class="st1" d="M-1105.1,981.8l-11.4,14.4l-11.3-14.4h-13v49.3h11.8v-32.3l12.4,16.2c0.7-0.9,1.4-1.8,2.1-2.6
		c1.7-2.1,3.2-4.1,4.7-6l5.8-7.5v32.2h11.8v-49.3H-1105.1z"/>
	<polygon class="st1" points="-1053.4,992.3 -1053.4,981.9 -1088,981.9 -1088,1031.1 -1053.4,1031.1 -1053.4,1020.6 -1076.1,1020.6 
		-1076.1,1010.5 -1057.1,1010.5 -1057.1,1002.6 -1076.1,1002.6 -1076.1,992.3 	"/>
	<path class="st1" d="M-1008.3,981.8h-12.1l-8.1,16.1l-8.5-16.1h-12.1l3.3,6.5c1.5,2.7,2.9,5.6,4.3,8.4c1.3,2.8,2.7,5.5,4,8.3
		l0.7,1.4l-12.3,24.6h12.4c0.7-1.3,1.4-2.7,2.1-4.2c1.1-2.2,2.1-4.3,3.2-6.2l2.8-5.2l8.6,15.7h11.8l-12.3-24.6L-1008.3,981.8z"/>
</g>
<g>
	<g>
		<polygon class="st2" points="-1478.1,626.4 -1478.1,666.4 -1491,666.4 -1491,599.2 -1445.4,639.8 -1445.4,599.2 -1432.5,599.2 
			-1432.5,666.4 		"/>
		<path class="st2" d="M-1200.3,669c-4.8,0-9.3-0.9-13.5-2.8c-4.2-1.8-7.9-4.3-11.1-7.5c-3.2-3.2-5.7-6.8-7.5-11.1
			c-1.8-4.2-2.8-8.8-2.8-13.6c0-4.8,0.9-9.3,2.8-13.6c1.8-4.3,4.3-8,7.5-11.1c3.2-3.2,6.9-5.7,11.1-7.5c4.2-1.8,8.7-2.8,13.5-2.8
			c4.8,0,9.4,0.9,13.6,2.8c4.2,1.8,7.9,4.3,11.1,7.5c3.2,3.2,5.7,6.9,7.5,11.1c1.8,4.3,2.8,8.8,2.8,13.6c0,4.8-0.9,9.4-2.8,13.6
			c-1.8,4.2-4.3,7.9-7.5,11.1c-3.2,3.2-6.9,5.7-11.1,7.5C-1190.9,668.1-1195.5,669-1200.3,669 M-1200.2,611.2
			c-3.1,0-5.9,0.6-8.6,1.9c-2.7,1.3-5,2.9-7,5c-2,2.1-3.6,4.5-4.7,7.3c-1.2,2.8-1.7,5.7-1.7,8.7c0,3.1,0.6,6,1.7,8.7
			c1.2,2.8,2.7,5.2,4.7,7.3c2,2.1,4.3,3.8,7,5.1c2.7,1.3,5.5,1.9,8.6,1.9c3.1,0,5.9-0.6,8.6-1.9c2.7-1.3,5-2.9,7-5.1
			c2-2.1,3.6-4.6,4.7-7.3c1.2-2.8,1.7-5.7,1.7-8.7c0-3-0.6-5.9-1.7-8.7c-1.2-2.8-2.7-5.2-4.7-7.3c-2-2.1-4.3-3.8-7-5
			C-1194.3,611.8-1197.2,611.2-1200.2,611.2"/>
		<path class="st2" d="M-1281.9,666.4h-12.9v-67.3h30.6c3.4,0,6.6,0.6,9.4,1.7c2.9,1.1,5.3,2.7,7.3,4.8c2,2.1,3.6,4.5,4.7,7.4
			c1.1,2.9,1.7,6,1.7,9.3c0,5.1-1.3,9.5-3.8,13.3c-2.5,3.8-5.9,6.5-10.2,8.2c5.7,7.5,11.2,15,16.8,22.6h-15.4
			c-2.7-3.5-5.3-7-7.9-10.6c-2.6-3.6-5.1-7.2-7.7-10.9h-12.7V666.4z M-1281.9,633.6h17.7c1.2,0,2.4-0.2,3.6-0.7
			c1.3-0.5,2.4-1.2,3.3-2.1c1-1,1.8-2.1,2.4-3.5c0.6-1.4,1-3.1,1-5c0-1-0.1-2.1-0.4-3.5c-0.2-1.3-0.7-2.6-1.5-3.9
			c-0.7-1.2-1.8-2.3-3.1-3.1c-1.3-0.9-3.1-1.3-5.4-1.3h-17.7V633.6z"/>
		<path class="st2" d="M-1330.1,667.6c-4.4,0-8.3-0.7-11.9-2c-3.6-1.3-6.6-3.2-9.1-5.7c-2.5-2.5-4.5-5.4-5.8-8.9
			c-1.4-3.5-2.1-7.4-2.1-11.7v-40.1h12.9v40c0,3.4,0.6,6.2,1.7,8.4c1.1,2.2,2.5,4,4.1,5.2c1.6,1.3,3.4,2.2,5.2,2.7
			c1.9,0.5,3.5,0.7,5,0.7c1.5,0,3.1-0.2,5-0.7c1.9-0.5,3.6-1.4,5.2-2.7c1.6-1.3,3-3,4.1-5.2c1.1-2.2,1.7-5,1.7-8.4v-40h12.9v40.1
			c0,4.3-0.7,8.2-2,11.7c-1.3,3.5-3.3,6.5-5.8,8.9c-2.5,2.5-5.5,4.4-9.1,5.7C-1321.7,666.9-1325.7,667.6-1330.1,667.6"/>
		<polygon class="st2" points="-1365.5,599.1 -1426,599.1 -1426,666.4 -1365.5,666.4 -1365.5,654.9 -1413.1,654.9 -1413.1,610.5 
			-1365.5,610.5 		"/>
		<path class="st1" d="M-1156,599.1v67.3h202.7v-67.3H-1156z M-1089.1,664.6h-12.2v-32.2l-19.9,23.9l-19.8-23.9v32.2h-12.2V601
			l32,36.7l32.1-36.7V664.6z M-1025.8,611.7h-45.1v41.9h45.1v11h-57.3v-63.7h57.3V611.7z M-1033.1,638.6h-27.2l13.6-11.6
			L-1033.1,638.6z M-956.7,664.6h-15.2l-16-22.2l-16,22.2h-15.2l23.7-31.5l-24.2-32.1h15.2l16.5,22.9l16.5-22.9h15.1l-24.1,32.1
			L-956.7,664.6z"/>
		<polygon class="st2" points="-1374,638.6 -1401.2,638.6 -1387.6,627 		"/>
	</g>
	<g>
		<path class="st1" d="M-1394.1,679.7v14.8h-1.9v-14.8H-1394.1z"/>
		<path class="st1" d="M-1370,694.6h-1.9l-7.7-11.7v11.7h-1.9v-14.8h1.9l7.7,11.7v-11.7h1.9V694.6z"/>
		<path class="st1" d="M-1356.5,679.7l4.5,12.7l4.6-12.7h2.1l-5.5,14.8h-2.4l-5.4-14.8H-1356.5z"/>
		<path class="st1" d="M-1331.9,679.7v14.8h-1.9v-14.8H-1331.9z"/>
		<path class="st1" d="M-1317.5,681.3v5.1h5.6v1.5h-5.6v5.2h6.3v1.6h-8.2v-14.8h8.2v1.6H-1317.5z"/>
		<path class="st1" d="M-1291.4,694.6l-3.9-6.1h-2.1v6.1h-1.9v-14.8h4.9c1.7,0,2.9,0.4,3.8,1.2c0.8,0.8,1.3,1.9,1.3,3.2
			c0,1.2-0.3,2.2-1,2.9c-0.7,0.7-1.6,1.2-2.9,1.4l4,6.1H-1291.4z M-1297.4,687.1h2.8c2.2,0,3.3-1,3.3-2.9s-1.1-2.9-3.3-2.9h-2.8
			V687.1z"/>
		<path class="st1" d="M-1268.4,679.7v1.6h-4.2v13.3h-1.9v-13.3h-4.2v-1.6H-1268.4z"/>
		<path class="st1" d="M-1255.2,681.3v5.1h5.6v1.5h-5.6v5.2h6.3v1.6h-8.2v-14.8h8.2v1.6H-1255.2z"/>
		<path class="st1" d="M-1211.7,679.7l-4.9,9.2v5.6h-1.9v-5.6l-4.9-9.2h2.2l3.6,7.2l3.6-7.2H-1211.7z"/>
		<path class="st1" d="M-1177,691.1h-6.5l-1.2,3.4h-2.1l5.5-14.6h2.2l5.5,14.6h-2.1L-1177,691.1z M-1177.5,689.6l-2.7-7.5l-2.7,7.5
			H-1177.5z"/>
		<path class="st1" d="M-1150.9,679.7v14.8h-1.9v-6.9h-7.5v6.9h-1.9v-14.8h1.9v6.4h7.5v-6.4H-1150.9z"/>
		<path class="st1" d="M-1127.8,680.5c1.1,0.6,2,1.5,2.6,2.7c0.6,1.2,0.9,2.5,0.9,3.9c0,1.5-0.3,2.8-0.9,3.9
			c-0.6,1.2-1.5,2.1-2.6,2.7c-1.1,0.6-2.3,1-3.7,1c-1.4,0-2.6-0.3-3.7-1c-1.1-0.6-2-1.5-2.6-2.7s-0.9-2.5-0.9-3.9
			c0-1.5,0.3-2.8,0.9-3.9c0.6-1.2,1.5-2.1,2.6-2.7c1.1-0.6,2.4-1,3.7-1C-1130.1,679.5-1128.9,679.9-1127.8,680.5z M-1134.3,682
			c-0.8,0.5-1.4,1.1-1.9,2c-0.5,0.9-0.7,1.9-0.7,3.1c0,1.2,0.2,2.2,0.7,3.1c0.5,0.9,1.1,1.6,1.9,2c0.8,0.5,1.7,0.7,2.7,0.7
			c1,0,1.9-0.2,2.7-0.7c0.8-0.5,1.4-1.2,1.9-2c0.5-0.9,0.7-1.9,0.7-3.1c0-1.2-0.2-2.2-0.7-3.1c-0.5-0.9-1.1-1.6-1.9-2
			c-0.8-0.5-1.7-0.7-2.7-0.7C-1132.5,681.3-1133.4,681.6-1134.3,682z"/>
		<path class="st1" d="M-1104.3,694.6l-3.9-6.1h-2.1v6.1h-1.9v-14.8h4.9c1.7,0,2.9,0.4,3.8,1.2c0.8,0.8,1.3,1.9,1.3,3.2
			c0,1.2-0.3,2.2-1,2.9c-0.7,0.7-1.6,1.2-2.9,1.4l4,6.1H-1104.3z M-1110.3,687.1h2.8c2.2,0,3.3-1,3.3-2.9s-1.1-2.9-3.3-2.9h-2.8
			V687.1z"/>
		<path class="st1" d="M-1082.6,694.6l-3.9-6.1h-2.1v6.1h-1.9v-14.8h4.9c1.7,0,2.9,0.4,3.8,1.2c0.8,0.8,1.3,1.9,1.3,3.2
			c0,1.2-0.3,2.2-1,2.9c-0.7,0.7-1.6,1.2-2.9,1.4l4,6.1H-1082.6z M-1088.5,687.1h2.8c2.2,0,3.3-1,3.3-2.9s-1.1-2.9-3.3-2.9h-2.8
			V687.1z"/>
		<path class="st1" d="M-1060,691.1h-6.5l-1.2,3.4h-2.1l5.5-14.6h2.2l5.5,14.6h-2.1L-1060,691.1z M-1060.5,689.6l-2.7-7.5l-2.7,7.5
			H-1060.5z"/>
	</g>
</g>
<g>
	<g>
		<g>
			<polygon class="st2" points="-710.7,674.5 -710.7,720.9 -720,720.9 -741,689.1 -741,720.9 -750.3,720.9 -750.3,674.5 -741,674.5 
				-720,706.3 -720,674.5 			"/>
			<polygon class="st2" points="-674.7,682 -692.3,682 -692.3,693.7 -676.7,693.7 -676.7,701 -692.3,701 -692.3,713.3 -674.7,713.3 
				-674.7,720.9 -701.6,720.9 -701.6,674.5 -674.7,674.5 			"/>
			<path class="st2" d="M-666.4,674.6h9.3v28.7c0,6.4,3.4,9.7,9.4,9.7c6,0,9.4-3.3,9.4-9.7v-28.7h9.4v28.6
				c0,12.2-8.8,18.2-18.9,18.2c-10.2,0-18.5-6-18.5-18.2V674.6z"/>
			<path class="st2" d="M-602.6,674.6c11.1,0,16.7,6.4,16.7,14.2c0,5.6-3.1,11.3-10.5,13.3l11.1,18.8h-10.7l-10.2-18h-4.4v18h-9.3
				v-46.3H-602.6z M-603,682.2h-7.8v13.6h7.8c5.2,0,7.5-2.7,7.5-6.9C-595.5,684.8-597.8,682.2-603,682.2"/>
			<path class="st2" d="M-556,721.3c-13.1,0-23.7-9.8-23.7-23.8c0-13.9,10.7-23.7,23.7-23.7c13.2,0,23.7,9.8,23.7,23.7
				C-532.3,711.5-542.9,721.3-556,721.3 M-556,713c8.4,0,14.1-6,14.1-15.5c0-9.4-5.8-15.3-14.1-15.3c-8.4,0-14.2,5.9-14.2,15.3
				C-570.2,707-564.4,713-556,713"/>
			<polygon class="st1" points="-525.4,674.6 -514.9,674.6 -500.2,709 -485.4,674.6 -475,674.6 -475,720.9 -484.2,720.9 
				-484.2,690.7 -496.6,720.9 -503.7,720.9 -516.1,690.7 -516.1,720.9 -525.4,720.9 			"/>
			<polygon class="st1" points="-438.9,682 -456.5,682 -456.5,693.7 -440.9,693.7 -440.9,701 -456.5,701 -456.5,713.3 -438.9,713.3 
				-438.9,720.9 -465.8,720.9 -465.8,674.5 -438.9,674.5 			"/>
			<polygon class="st1" points="-412.8,705.3 -421.9,720.9 -432.4,720.9 -417.8,697.5 -432.6,674.6 -421.9,674.6 -411.9,690.1 
				-402.8,674.6 -392.4,674.6 -406.9,697.8 -392.1,720.9 -402.8,720.9 			"/>
		</g>
		<g>
			<path class="st1" d="M-622.5,591l31.3,31.3V649C-591.2,649-628.6,636.3-622.5,591"/>
			<path class="st1" d="M-517.9,610.3l-31.3-31.3v-26.7c0,0,18.6,6.3,27.4,26C-518.1,586.5-516.1,597-517.9,610.3"/>
			<path class="st2" d="M-522.5,617.9l-66.5-65.9c-1.2-1.2-3.2-1.2-4.4,0l-0.1,0.1l-24.5,24.5c-1.2,1.2-1.2,3.1,0,4.4l67.2,67.9
				c0.7,0.7,1.7,1,2.6,0.9c0.7-0.1,1.4-0.4,1.9-1l23.9-26.6C-521.3,621-521.4,619.1-522.5,617.9 M-576.2,570.1
				c0.6-0.6,1.7-0.5,2.5,0.2c0.8,0.7,0.9,1.8,0.3,2.5c-0.2,0.2-0.4,0.3-0.6,0.4l1,6.3c0.1,0.7,0.2,1.3,0.3,2l0.1,0.5l9.9,9.6l2-2
				l-9.1-8.9l2.6-2.7l13.9,13.7c0.7,0.7,1.4,1.4,2.2,2.1l4.8,4.8c0.6-0.3,1.4-0.1,2,0.5c0.3,0.3,0.6,0.8,0.6,1.2
				c0.1,0.5-0.1,0.9-0.4,1.2c-0.3,0.3-0.6,0.4-1,0.4c-0.5,0-1-0.2-1.4-0.6c-0.4-0.3-0.6-0.8-0.6-1.2c0-0.3,0-0.6,0.1-0.9l-4.9-4.7
				c-0.7-0.7-1.4-1.4-2.1-2l-13-12.6l-0.8,0.8l9.1,8.9l-3.8,3.8l-11.1-11l-0.1-0.2l-0.1-0.7c-0.1-0.7-0.2-1.3-0.3-2l-0.8-6.4
				c-0.3-0.1-0.6-0.3-0.9-0.5C-576.7,571.9-576.8,570.8-576.2,570.1 M-551.3,607.4c0.8,0.8,1.6,1.5,2.3,2.3l8.6,8.6
				c0.6-0.3,1.4-0.1,2.1,0.5c0.8,0.7,0.9,1.8,0.3,2.5c-0.3,0.3-0.6,0.4-1,0.4c-0.5,0-1-0.2-1.4-0.6c-0.6-0.6-0.8-1.4-0.5-2l-8.8-8.4
				c-0.8-0.8-1.6-1.5-2.3-2.3l-1.5-1.5l3.5-3.6l-6.2-6.2c-0.3-0.3-0.6-0.6-0.9-0.9l-0.8-0.8c-0.6,0.3-1.4,0.1-2-0.5
				c-0.3-0.3-0.6-0.8-0.6-1.2c-0.1-0.5,0.1-0.9,0.4-1.2c0.6-0.6,1.7-0.5,2.5,0.2c0.6,0.6,0.8,1.4,0.6,2l0.8,0.8
				c0.3,0.3,0.6,0.6,0.9,0.9l7.3,7l-3.5,3.6L-551.3,607.4z M-592,554.7c0.3-0.3,0.8-0.5,1.2-0.4c0.4,0.1,0.9,0.3,1.2,0.6
				c0.6,0.6,0.8,1.4,0.5,2l1.9,1.8c0.3,0.3,0.6,0.6,0.9,0.9l7,6.7l1.4,10.1l-7.9-7.8c-0.2-0.2-0.3-0.3-0.4-0.5c-0.5-0.5-1-1-1.5-1.5
				l-1.6-1.6c-0.6,0.3-1.4,0.1-2.1-0.5c-0.8-0.7-0.9-1.8-0.3-2.5c0.3-0.3,0.8-0.5,1.2-0.4c0.4,0.1,0.9,0.3,1.2,0.6
				c0.6,0.6,0.8,1.4,0.5,2l1.1,1l0.6,0.5c0.7,0.6,1.3,1.2,2,1.9l5.2,5l-0.8-5.9l-6.5-6.5l-0.9-0.9l-1.8-1.8c-0.4,0.2-0.8,0.2-1.3,0
				c-0.3-0.1-0.5-0.3-0.8-0.5c-0.7-0.6-0.8-1.6-0.5-2.2C-592.1,554.9-592,554.8-592,554.7 M-601.8,564.8c0.3-0.3,0.8-0.5,1.2-0.4
				c0.4,0.1,0.9,0.3,1.2,0.6c0.6,0.6,0.8,1.4,0.5,2.1l4.7,4.5l5.8,5.6c0.8,0.1,1.5,0.2,2.3,0.2l4.5,0.5l0.1,0l10.4,10.2l0.6,4.4
				c0.1,0.8,0.2,1.7,0.3,2.5l10.2,10.2c0.6-0.3,1.5-0.1,2.1,0.5c0.8,0.7,0.9,1.8,0.3,2.5c-0.3,0.3-0.6,0.4-1,0.4
				c-0.5,0-1-0.2-1.4-0.6c-0.6-0.6-0.8-1.4-0.5-2.1l-4.6-4.4l-6-5.8l-0.1-0.2c-0.2-1-0.3-1.9-0.4-2.8l-0.6-4l-7.8-7.6l-1.9-1.9
				l-4.1-0.5c-0.9-0.1-1.7-0.2-2.6-0.3l-0.2,0l-0.2-0.1l-10.6-10.5c-0.6,0.3-1.5,0.1-2.1-0.5c-0.3-0.3-0.6-0.8-0.6-1.2
				C-602.3,565.6-602.1,565.2-601.8,564.8 M-586,586.8c0.2,0.2,0.5,0.4,0.8,0.7l0.1,0.1c0.2,0.2,0.5,0.4,0.7,0.6l0.3,0.3
				c0.2,0.2,0.4,0.4,0.6,0.6l1.8,1.8c0.2,0.2,0.4,0.4,0.5,0.6l0.3,0.3c0.2,0.2,0.5,0.5,0.7,0.7l0.1,0.1c0.3,0.3,0.5,0.5,0.7,0.7
				c0.4,0.5,0.8,0.9,1.1,1.1c0.2,0.3,0.4,0.4,0.4,0.4l-0.6,0.6c0,0-0.2-0.1-0.4-0.4c-0.3-0.2-0.7-0.6-1.2-1
				c-0.2-0.2-0.5-0.4-0.8-0.7l-0.1-0.1c-0.2-0.2-0.5-0.5-0.7-0.7l-0.3-0.3c-0.2-0.2-0.4-0.4-0.6-0.6l-1.8-1.8
				c-0.2-0.2-0.4-0.4-0.6-0.6l-0.3-0.3c-0.2-0.2-0.4-0.5-0.7-0.7l-0.1-0.2c-0.2-0.2-0.5-0.5-0.7-0.7l-0.2-0.2
				c-0.6,0.2-1.4,0.1-2-0.5c-0.8-0.7-0.9-1.8-0.3-2.5c0.6-0.6,1.7-0.5,2.5,0.2c0.6,0.6,0.8,1.4,0.6,2L-586,586.8z M-578.1,589
				l-0.3-0.3c-0.2-0.2-0.4-0.4-0.6-0.5l-1.8-1.8c-0.2-0.2-0.4-0.4-0.6-0.6l-0.3-0.3c-0.2-0.2-0.4-0.4-0.6-0.7l-0.2-0.2
				c-0.3-0.3-0.5-0.5-0.7-0.7l-0.2-0.2c-0.6,0.2-1.4,0-2-0.5c-0.3-0.3-0.6-0.8-0.6-1.2c-0.1-0.5,0.1-0.9,0.4-1.2
				c0.3-0.3,0.8-0.5,1.2-0.4c0.4,0.1,0.9,0.3,1.2,0.6c0.6,0.6,0.8,1.4,0.6,2l0.2,0.2c0.2,0.2,0.5,0.4,0.8,0.7l0.2,0.2
				c0.2,0.2,0.4,0.4,0.7,0.6l0.3,0.3c0.2,0.2,0.4,0.4,0.6,0.6l1.8,1.8l0.6,0.6l0.3,0.3c0.2,0.2,0.5,0.5,0.7,0.7l0.1,0.1l0,0
				c0.3,0.3,0.5,0.5,0.7,0.7c0.4,0.5,0.8,0.9,1,1.1c0.3,0.3,0.4,0.4,0.4,0.4l-0.6,0.7c0,0-0.1-0.1-0.3-0.2l0,0
				c-0.1,0-0.1-0.1-0.2-0.2c-0.3-0.2-0.7-0.6-1.1-1c-0.2-0.2-0.5-0.4-0.8-0.7l-0.1-0.1C-577.6,589.4-577.9,589.2-578.1,589
				 M-605.5,568.5c0.6-0.6,1.7-0.5,2.5,0.2c0.6,0.6,0.8,1.4,0.5,2.1l4.7,4.5l6.1,5.9l0.1,0.2c0.1,0.9,0.3,1.7,0.4,2.6l0.6,4.1
				l9.7,9.5l3.9,0.5c0.9,0.1,1.9,0.2,2.8,0.4l0.2,0l0.2,0.1l3.6,3.6l6.8,6.8c0.6-0.3,1.5-0.1,2.1,0.5c0.3,0.3,0.6,0.8,0.6,1.2
				c0.1,0.5-0.1,0.9-0.4,1.2c-0.3,0.3-0.6,0.4-1,0.4c-0.1,0-0.1,0-0.2,0c-0.4,0-0.9-0.3-1.2-0.6c-0.6-0.6-0.8-1.4-0.5-2.1l-4.6-4.4
				l-0.2-0.2l-5.6-5.4l-2.6-0.3l-4.4-0.5l-10.4-10.2l-0.6-4.6c-0.1-0.8-0.2-1.5-0.3-2.3l-10.4-10.3c-0.6,0.3-1.5,0.1-2.1-0.5
				C-605.9,570.3-606.1,569.1-605.5,568.5 M-610.3,584.3c-0.3-0.3-0.6-0.6-0.9-0.9l-1.8-1.8c-0.6,0.3-1.4,0.1-2.1-0.5
				c-0.3-0.3-0.6-0.8-0.6-1.2c-0.1-0.5,0.1-0.9,0.4-1.2c0.6-0.6,1.7-0.5,2.5,0.2c0.6,0.6,0.8,1.4,0.5,2l1.9,1.7
				c0.3,0.3,0.6,0.6,0.9,0.9l6.6,6.3l5.9,0.7l-5.1-5c-0.6-0.7-1.3-1.3-1.9-2l-1.6-1.6c-0.6,0.3-1.4,0.1-2.1-0.5
				c-0.3-0.3-0.6-0.8-0.6-1.2c-0.1-0.5,0.1-0.9,0.4-1.2c0.3-0.3,0.8-0.5,1.2-0.4c0.4,0.1,0.9,0.3,1.2,0.6c0.6,0.6,0.8,1.4,0.5,2
				l1.7,1.6c0.7,0.6,1.3,1.3,2,1.9l8,7.7l-10.1-1.2L-610.3,584.3z M-567.6,625.3c-0.3,0.3-0.6,0.4-1,0.4c-0.1,0-0.1,0-0.2,0
				c-0.4-0.1-0.9-0.3-1.2-0.6c-0.6-0.6-0.8-1.4-0.5-2l-5-4.8c-0.7-0.7-1.4-1.3-2-2l-14-13.5l2.6-2.7l9.1,8.9l2-2l-9.9-9.7l-0.5-0.1
				c-0.7-0.1-1.3-0.2-2-0.3l-6.3-0.8c-0.1,0.2-0.2,0.5-0.4,0.6c-0.3,0.3-0.8,0.5-1.2,0.4c-0.4-0.1-0.9-0.3-1.2-0.6
				c-0.8-0.7-0.9-1.8-0.3-2.5c0.3-0.3,0.6-0.4,1-0.4c0.5,0,1,0.2,1.4,0.6c0.2,0.2,0.4,0.5,0.5,0.8l6.4,0.7c0.6,0.1,1.2,0.1,1.8,0.2
				l1,0.1l0.2,0.1L-576,607l-3.8,3.9l-9.1-8.9l-0.8,0.8l12.9,12.7c0.7,0.7,1.4,1.4,2.1,2.1l4.8,4.8c0.3-0.1,0.6-0.2,0.9-0.1
				c0.4,0.1,0.9,0.3,1.2,0.6C-567.1,623.6-567,624.7-567.6,625.3 M-565.9,619.3l2.4-2.5l1.1-1.1l1.5,1.5c0.8,0.8,1.6,1.5,2.3,2.3
				l8.6,8.6c0.6-0.3,1.5-0.1,2.1,0.5c0.4,0.3,0.6,0.8,0.6,1.2c0.1,0.5-0.1,0.9-0.4,1.2c-0.3,0.3-0.6,0.4-1,0.4c-0.5,0-1-0.2-1.4-0.6
				c-0.6-0.6-0.8-1.4-0.5-2l-8.8-8.4c-0.8-0.8-1.6-1.6-2.4-2.3l-0.4-0.4l-0.6,0.6l-2.9,3l-7.2-7.1c-0.3-0.3-0.6-0.6-0.8-0.8
				l-0.8-0.8c-0.6,0.3-1.4,0.1-2-0.5c-0.3-0.3-0.6-0.8-0.6-1.2c-0.1-0.5,0.1-0.9,0.4-1.2c0.3-0.3,0.8-0.5,1.2-0.4
				c0.4,0.1,0.9,0.3,1.2,0.6c0.6,0.6,0.8,1.4,0.6,2L-565.9,619.3z M-551.7,643.1c-0.6-0.6-0.8-1.4-0.5-2.1l-7.8-7.4
				c-0.7-0.7-1.4-1.3-2.1-2l-1.2-1.2l0-0.2c-0.1-0.9-0.2-1.7-0.4-2.6l-0.2-1.1c-0.5-0.5-1.1-1-1.6-1.6l-0.9-0.9l-1.8-1.8l-2.3-2.3
				c-0.5-0.4-0.9-0.9-1.3-1.3l-1.4-1.4c-0.6,0.3-1.4,0.1-2-0.5c-0.8-0.7-0.9-1.8-0.3-2.5c0.3-0.3,0.8-0.5,1.2-0.4
				c0.4,0.1,0.9,0.3,1.2,0.6c0.6,0.6,0.8,1.4,0.5,2l1.4,1.3c0.5,0.4,0.9,0.9,1.4,1.3l2.3,2.2c0.6,0.6,1.2,1.1,1.8,1.7l0.9,0.9
				c0.6,0.6,1.2,1.1,1.8,1.7l0.2,0.2l0.2,1.6c0.1,0.8,0.2,1.6,0.3,2.4l0.8,0.7c0.7,0.7,1.4,1.4,2.1,2.1l5.6,5.6l2,2
				c0.6-0.3,1.4-0.1,2,0.5c0.8,0.7,0.9,1.8,0.3,2.5c-0.3,0.3-0.6,0.4-1,0.4c-0.1,0-0.1,0-0.2,0c-0.2,0-0.4-0.1-0.6-0.2
				C-551.3,643.4-551.5,643.3-551.7,643.1 M-547.2,639l-0.7-0.6c-0.5-0.4-1.1-1-1.9-1.7c-0.4-0.4-0.8-0.7-1.2-1.1l-0.3-0.3
				c-0.3-0.3-0.7-0.7-1.1-1l-0.5-0.5c-0.3-0.3-0.6-0.6-1-0.9l-2.9-2.9c-0.3-0.3-0.6-0.6-0.9-0.9l-0.2-0.1l-0.3-0.3
				c-0.4-0.4-0.8-0.8-1.1-1.2l-0.2-0.2c-0.4-0.4-0.8-0.8-1.2-1.2c-0.4-0.4-0.8-0.8-1.2-1.2c-0.6,0.3-1.4,0.1-2-0.5
				c-0.8-0.7-0.9-1.8-0.3-2.5c0.3-0.3,0.8-0.5,1.2-0.4c0.4,0,0.9,0.3,1.2,0.6c0.6,0.6,0.8,1.4,0.6,2c0.4,0.3,0.8,0.7,1.2,1.1
				c0.2,0.2,0.4,0.4,0.6,0.6c0.2,0.2,0.4,0.4,0.6,0.6l0.2,0.2c0.4,0.3,0.8,0.7,1.2,1.1l0.5,0.5c0.3,0.3,0.6,0.6,0.9,0.9l3,2.9
				c0.3,0.3,0.6,0.6,0.9,0.9l1.5,1.5l0.3,0.3c0.4,0.4,0.8,0.8,1.2,1.2l-0.2,0.2c0,0,0,0,0,0l0.2-0.2c0.7,0.7,1.3,1.4,1.7,1.8
				l0.7,0.7L-547.2,639z M-541.9,635.8c-0.3,0.3-0.6,0.4-1,0.4c-0.5,0-1-0.2-1.4-0.6c-0.6-0.6-0.8-1.3-0.6-2l-0.4-0.4l0-0.2l-1-6.3
				l-12-11.6l-6.2-0.8l-1-0.1l-0.3-0.2l-11-11c-0.6,0.3-1.5,0.1-2.1-0.5c-0.8-0.7-0.9-1.8-0.3-2.5c0.6-0.6,1.7-0.5,2.5,0.2
				c0.6,0.6,0.8,1.4,0.5,2.1l10.9,10.5l0.1,0.1l7.3,0.9l12.5,12.4l0.1,0.2l0.8,6.3l0.1,0.1c0.3-0.1,0.6-0.2,0.9-0.2
				c0.4,0,0.9,0.3,1.2,0.6c0.4,0.3,0.6,0.8,0.6,1.2C-541.5,635-541.6,635.5-541.9,635.8 M-533.2,626.9c-0.3,0.3-0.6,0.4-1,0.4
				c-0.5,0-1-0.2-1.4-0.6c-0.4-0.3-0.6-0.8-0.6-1.2c0-0.3,0-0.6,0.1-0.9l-0.1-0.1l-6.4-0.7l-0.2-0.1l-12.6-12.2l-1-7.3l-10.8-10.8
				c-0.6,0.3-1.5,0.1-2.1-0.5c-0.3-0.3-0.6-0.8-0.6-1.2c-0.1-0.5,0.1-0.9,0.4-1.2c0.6-0.6,1.7-0.5,2.5,0.2c0.6,0.6,0.8,1.4,0.5,2.1
				l8.2,7.8l3.2,3.1l1.1,7.3l11.9,11.7l6.4,0.9l0.4,0.4c0.6-0.2,1.4,0,2,0.5c0.3,0.3,0.6,0.8,0.6,1.2
				C-532.8,626.1-532.9,626.6-533.2,626.9 M-530.7,622.1l-0.7-0.6c-0.5-0.4-1.1-1-1.9-1.7c-0.4-0.4-0.8-0.7-1.2-1.1l-0.3-0.3
				c-0.3-0.3-0.7-0.6-1-1l-0.5-0.5c-0.3-0.3-0.6-0.6-1-0.9l-2.9-2.9c-0.3-0.3-0.6-0.6-0.9-0.9l-0.5-0.5c-0.4-0.4-0.7-0.7-1.1-1.1
				l-0.2-0.2c-0.4-0.4-0.8-0.8-1.2-1.2c-0.4-0.4-0.8-0.8-1.1-1.2c-0.6,0.3-1.4,0.1-2-0.5c-0.8-0.7-0.9-1.8-0.3-2.5
				c0.6-0.6,1.7-0.5,2.5,0.2c0.6,0.6,0.8,1.4,0.6,2c0.4,0.3,0.8,0.7,1.2,1.1c0.4,0.4,0.8,0.7,1.2,1.2l0.2,0.2
				c0.4,0.3,0.7,0.7,1.1,1.1l0.5,0.5c0.3,0.3,0.6,0.6,0.9,0.9l3,2.9l1.4,1.4c0.4,0.4,0.7,0.7,1.1,1.1l0.2,0.2
				c0.4,0.4,0.8,0.8,1.2,1.2c0.7,0.8,1.3,1.4,1.8,1.8l0.7,0.7L-530.7,622.1z M-525.9,619.4c-0.3,0.3-0.6,0.4-1,0.4
				c-0.1,0-0.1,0-0.2,0c-0.4-0.1-0.9-0.3-1.2-0.6c-0.4-0.4-0.7-1-0.7-1.5c0-0.2,0-0.4,0.1-0.5l-7.8-7.4c-0.7-0.7-1.4-1.4-2.1-2
				l-0.8-0.8c-0.8-0.1-1.6-0.2-2.3-0.3l-1.6-0.2l-0.2-0.2c-0.6-0.6-1.2-1.2-1.8-1.7l-0.9-0.9c-0.6-0.6-1.2-1.2-1.8-1.8l-2.3-2.3
				c-0.4-0.4-0.9-0.9-1.3-1.4l-1.4-1.4c-0.6,0.3-1.4,0.1-2.1-0.5c-0.8-0.7-0.9-1.8-0.3-2.5c0.3-0.3,0.8-0.5,1.2-0.4
				c0.4,0.1,0.9,0.3,1.2,0.6c0.6,0.6,0.8,1.4,0.5,2l1.4,1.4c0.5,0.4,0.9,0.9,1.4,1.3l2.3,2.2c0.6,0.6,1.2,1.1,1.8,1.7l0.9,0.9
				c0.5,0.5,1.1,1.1,1.6,1.6l1.1,0.1c0.9,0.1,1.7,0.2,2.6,0.3l0.2,0l1.2,1.1c0.7,0.7,1.4,1.4,2.1,2.1l7.6,7.6
				c0.6-0.3,1.5-0.1,2.1,0.5c0.3,0.3,0.6,0.8,0.6,1.2C-525.4,618.6-525.6,619.1-525.9,619.4"/>
		</g>
	</g>
	<g>
		<path class="st1" d="M-701.7,731.9v10.7h-1.5v-10.7H-701.7z"/>
		<path class="st1" d="M-683,742.6h-1.5l-6-8.5v8.5h-1.5v-10.7h1.5l6,8.5v-8.5h1.5V742.6z"/>
		<path class="st1" d="M-672.5,731.9l3.5,9.2l3.6-9.2h1.6l-4.2,10.7h-1.9l-4.2-10.7H-672.5z"/>
		<path class="st1" d="M-653.4,731.9v10.7h-1.5v-10.7H-653.4z"/>
		<path class="st1" d="M-642.1,733v3.7h4.4v1.1h-4.4v3.7h4.9v1.1h-6.4v-10.7h6.4v1.1H-642.1z"/>
		<path class="st1" d="M-621.8,742.6l-3-4.4h-1.6v4.4h-1.5v-10.7h3.8c1.3,0,2.3,0.3,2.9,0.9c0.7,0.6,1,1.4,1,2.3
			c0,0.9-0.3,1.6-0.8,2.1c-0.5,0.5-1.3,0.9-2.3,1l3.1,4.4H-621.8z M-626.5,737.2h2.2c1.7,0,2.5-0.7,2.5-2.1c0-1.4-0.8-2.1-2.5-2.1
			h-2.2V737.2z"/>
		<path class="st1" d="M-604,731.9v1.1h-3.3v9.6h-1.5V733h-3.3v-1.1H-604z"/>
		<path class="st1" d="M-593.6,733v3.7h4.4v1.1h-4.4v3.7h4.9v1.1h-6.4v-10.7h6.4v1.1H-593.6z"/>
		<path class="st1" d="M-559.8,731.9l-3.8,6.7v4.1h-1.5v-4.1l-3.8-6.7h1.7l2.8,5.2l2.8-5.2H-559.8z"/>
		<path class="st1" d="M-532.8,740.1h-5.1l-1,2.5h-1.6l4.3-10.5h1.7l4.3,10.5h-1.6L-532.8,740.1z M-533.2,739l-2.1-5.4l-2.1,5.4
			H-533.2z"/>
		<path class="st1" d="M-512.5,731.9v10.7h-1.5v-5h-5.9v5h-1.5v-10.7h1.5v4.6h5.9v-4.6H-512.5z"/>
		<path class="st1" d="M-494.5,732.4c0.9,0.5,1.5,1.1,2,2c0.5,0.8,0.7,1.8,0.7,2.8c0,1.1-0.2,2-0.7,2.8c-0.5,0.8-1.2,1.5-2,2
			c-0.9,0.5-1.8,0.7-2.9,0.7s-2-0.2-2.9-0.7c-0.9-0.5-1.5-1.1-2-2c-0.5-0.8-0.7-1.8-0.7-2.8c0-1.1,0.2-2,0.7-2.8
			c0.5-0.8,1.2-1.5,2-2c0.9-0.5,1.8-0.7,2.9-0.7S-495.4,732-494.5,732.4z M-499.6,733.5c-0.6,0.3-1.1,0.8-1.5,1.5
			c-0.4,0.6-0.5,1.4-0.5,2.2c0,0.8,0.2,1.6,0.5,2.2c0.4,0.6,0.8,1.1,1.5,1.5c0.6,0.3,1.3,0.5,2.1,0.5c0.8,0,1.5-0.2,2.1-0.5
			c0.6-0.3,1.1-0.8,1.5-1.5c0.4-0.6,0.5-1.4,0.5-2.2c0-0.9-0.2-1.6-0.5-2.2c-0.4-0.6-0.8-1.1-1.5-1.5c-0.6-0.3-1.3-0.5-2.1-0.5
			C-498.2,733-498.9,733.2-499.6,733.5z"/>
		<path class="st1" d="M-476.3,742.6l-3-4.4h-1.6v4.4h-1.5v-10.7h3.8c1.3,0,2.3,0.3,2.9,0.9c0.7,0.6,1,1.4,1,2.3
			c0,0.9-0.3,1.6-0.8,2.1c-0.5,0.5-1.3,0.9-2.3,1l3.1,4.4H-476.3z M-480.9,737.2h2.2c1.7,0,2.5-0.7,2.5-2.1c0-1.4-0.8-2.1-2.5-2.1
			h-2.2V737.2z"/>
		<path class="st1" d="M-459.3,742.6l-3-4.4h-1.6v4.4h-1.5v-10.7h3.8c1.3,0,2.3,0.3,2.9,0.9s1,1.4,1,2.3c0,0.9-0.3,1.6-0.8,2.1
			c-0.5,0.5-1.3,0.9-2.3,1l3.1,4.4H-459.3z M-464,737.2h2.2c1.7,0,2.5-0.7,2.5-2.1c0-1.4-0.8-2.1-2.5-2.1h-2.2V737.2z"/>
		<path class="st1" d="M-441.8,740.1h-5.1l-1,2.5h-1.6l4.3-10.5h1.7l4.3,10.5h-1.6L-441.8,740.1z M-442.2,739l-2.1-5.4l-2.1,5.4
			H-442.2z"/>
	</g>
</g>
<g>
	<g>
		<polygon class="st2" points="427.1,483.7 427.1,523.7 414.2,523.7 414.2,456.5 459.8,497.1 459.8,456.5 472.7,456.5 472.7,523.7 
					"/>
		<path class="st2" d="M704.9,526.3c-4.8,0-9.3-0.9-13.5-2.8c-4.2-1.8-7.9-4.3-11.1-7.5c-3.2-3.2-5.7-6.8-7.5-11.1
			c-1.8-4.2-2.8-8.8-2.8-13.6c0-4.8,0.9-9.3,2.8-13.6c1.8-4.3,4.3-8,7.5-11.1c3.2-3.2,6.9-5.7,11.1-7.5c4.2-1.8,8.7-2.8,13.5-2.8
			c4.8,0,9.4,0.9,13.6,2.8c4.2,1.8,7.9,4.3,11.1,7.5c3.2,3.2,5.7,6.9,7.5,11.1c1.8,4.3,2.8,8.8,2.8,13.6c0,4.8-0.9,9.4-2.8,13.6
			c-1.8,4.2-4.3,7.9-7.5,11.1c-3.2,3.2-6.8,5.7-11.1,7.5C714.3,525.4,709.7,526.3,704.9,526.3 M704.9,468.5c-3.1,0-5.9,0.6-8.6,1.9
			c-2.7,1.3-5,2.9-7,5c-2,2.1-3.6,4.5-4.7,7.3c-1.2,2.8-1.7,5.7-1.7,8.7c0,3.1,0.6,6,1.7,8.7c1.2,2.8,2.7,5.2,4.7,7.3
			c2,2.1,4.3,3.8,7,5.1c2.7,1.3,5.5,1.9,8.6,1.9c3.1,0,5.9-0.6,8.6-1.9c2.7-1.3,5-2.9,7-5.1c2-2.1,3.6-4.6,4.7-7.3
			c1.2-2.8,1.7-5.7,1.7-8.7c0-3-0.6-5.9-1.7-8.7c-1.2-2.8-2.7-5.2-4.7-7.3c-2-2.1-4.3-3.8-7-5C710.8,469.1,708,468.5,704.9,468.5"/>
		<path class="st2" d="M623.3,523.7h-12.9v-67.3H641c3.4,0,6.6,0.6,9.4,1.7c2.9,1.1,5.3,2.7,7.3,4.8c2,2.1,3.6,4.5,4.7,7.4
			c1.1,2.9,1.7,6,1.7,9.3c0,5.1-1.3,9.5-3.8,13.3c-2.5,3.8-5.9,6.5-10.2,8.2c5.7,7.5,11.2,15,16.8,22.6h-15.4
			c-2.7-3.5-5.3-7-7.9-10.6c-2.6-3.6-5.1-7.2-7.7-10.9h-12.7V523.7z M623.3,490.9H641c1.2,0,2.4-0.2,3.6-0.7
			c1.3-0.5,2.4-1.2,3.3-2.1c1-1,1.8-2.1,2.4-3.5c0.6-1.4,1-3.1,1-5c0-1-0.1-2.1-0.4-3.5c-0.2-1.3-0.7-2.6-1.5-3.9
			c-0.7-1.2-1.8-2.3-3.1-3.1c-1.3-0.9-3.1-1.3-5.4-1.3h-17.7V490.9z"/>
		<path class="st2" d="M575.1,524.8c-4.4,0-8.3-0.7-11.9-2c-3.6-1.3-6.6-3.2-9.1-5.7c-2.5-2.5-4.5-5.4-5.8-8.9
			c-1.4-3.5-2.1-7.4-2.1-11.7v-40.1h12.9v40c0,3.4,0.6,6.2,1.7,8.4c1.1,2.2,2.5,4,4.1,5.2c1.6,1.3,3.4,2.2,5.2,2.7
			c1.9,0.5,3.5,0.7,5,0.7c1.5,0,3.1-0.2,5-0.7c1.9-0.5,3.6-1.4,5.2-2.7c1.6-1.3,3-3,4.1-5.2c1.1-2.2,1.7-5,1.7-8.4v-40h12.9v40.1
			c0,4.3-0.7,8.2-2,11.7c-1.3,3.5-3.3,6.5-5.8,8.9c-2.5,2.5-5.5,4.4-9.1,5.7C583.5,524.2,579.5,524.8,575.1,524.8"/>
		<polygon class="st2" points="539.7,456.4 479.1,456.4 479.1,523.7 539.7,523.7 539.7,512.1 492,512.1 492,467.8 539.7,467.8 		"/>
		<path class="st1" d="M749.1,456.4v67.3h202.7v-67.3H749.1z M816,521.9h-12.2v-32.2l-19.9,23.9l-19.8-23.9v32.2h-12.2v-63.6
			l32,36.7l32.1-36.7V521.9z M879.4,469h-45.1v41.9h45.1v11h-57.3v-63.7h57.3V469z M872.1,495.9h-27.2l13.6-11.6L872.1,495.9z
			 M948.5,521.9h-15.2l-16-22.2l-16,22.2H886l23.7-31.5l-24.2-32.1h15.2l16.5,22.9l16.5-22.9h15.1l-24.1,32.1L948.5,521.9z"/>
		<polygon class="st2" points="531.2,495.9 504,495.9 517.6,484.3 		"/>
	</g>
	<g>
		<path class="st2" d="M708.1,279h-50v22.2H708v0c0,0,0.1,0,0.1,0c0.1,0,0.2,0,0.2,0c10.2,0.1,18.5,8.4,18.5,18.7
			c0,10.3-8.4,18.7-18.7,18.7v0h-50v22.2h50h0c22.6,0,40.8-18.3,40.8-40.8C748.9,297.3,730.7,279,708.1,279"/>
		<path class="st2" d="M657.9,393.9h50v-22.2H658v0c0,0-0.1,0-0.1,0c-0.1,0-0.2,0-0.2,0c-10.2-0.1-18.5-8.4-18.5-18.7
			c0-10.3,8.4-18.7,18.7-18.7v0h50v-22.2h-50h0c-22.6,0-40.9,18.3-40.9,40.8C617,375.6,635.3,393.9,657.9,393.9"/>
		<g>
			<path class="st1" d="M649.1,241.7v63.5c-13.9,2.6-25.8,11-32.8,22.7C611.6,309.9,608.5,272.7,649.1,241.7z"/>
			<path class="st1" d="M747.5,392.3c-4.9,12.9-14.2,26.4-30.6,38.9v-63.5c13.9-2.6,25.7-11,32.8-22.7
				C752.5,355.8,754.8,373.3,747.5,392.3z"/>
		</g>
	</g>
</g>
<g>
	<g>
		<path class="st3" d="M-586.2,904.9v35.7c1.6,2.9,3.1,5.5,4.4,7.8c1.8,3.1,3.3,5.9,4.6,8.4c1.3,2.4,2.5,4.7,3.5,6.7
			c1,2,2,4,2.9,5.9c0.8-1.9,1.8-3.8,2.8-5.8c1-2,2.2-4.2,3.5-6.7c1.3-2.5,2.9-5.3,4.6-8.4c1.1-2,2.4-4.2,3.7-6.6v-37H-586.2z"/>
		<path class="st1" d="M-588,944.6c2.3,4.1,4.4,7.8,6.1,10.9c1.8,3.1,3.3,5.9,4.6,8.4c1.3,2.4,2.5,4.7,3.5,6.7c1,2,2,4,2.9,5.9
			c0.8-1.9,1.8-3.8,2.8-5.8c1-2,2.2-4.2,3.5-6.7c1.3-2.5,2.9-5.3,4.6-8.4c1.8-3.1,3.8-6.7,6.1-10.8l17-30.2c1.9-3.4,4.3-6.1,7.2-8.2
			c2.9-2.1,6.6-3.1,10.9-3.1c4.1,0,7.9,1.2,11.2,3.6c3.3,2.4,5.8,6.1,7.2,11.1l26.9,93.6H-506l-10-37.1c-1.7-6.1-3.1-11.4-4.3-15.9
			c-1.2-4.6-2.2-9-3-13.4c-1.8,3.7-3.8,7.8-6,12.3c-2.2,4.5-5.1,10.2-8.8,17.1l-14.3,26.7c-1.4,2.7-2.8,4.8-4.2,6.3
			c-1.4,1.5-2.9,2.7-4.4,3.6c-1.5,0.8-3.1,1.4-4.8,1.7c-1.7,0.3-3.6,0.4-5.6,0.4c-2,0-3.9-0.1-5.6-0.4c-1.7-0.3-3.3-0.8-4.8-1.7
			c-1.5-0.8-2.9-2-4.4-3.6c-1.4-1.5-2.8-3.6-4.2-6.3l-14.3-26.9c-1.9-3.6-3.6-6.8-5.1-9.7c-1.5-2.9-2.8-5.4-4.1-7.7
			c-1.2-2.3-2.3-4.4-3.2-6.3c-0.9-1.9-1.8-3.8-2.6-5.6c-0.9,4.2-1.9,8.7-3,13.3c-1.2,4.6-2.5,10-4.1,16l-10,37.1h-32.3l27.5-93.6
			c1.5-5,3.9-8.7,7.3-11.1c3.4-2.4,7.2-3.6,11.3-3.6c4.2,0,7.8,1,10.7,3c2.9,2,5.3,4.8,7.2,8.3L-588,944.6z"/>
	</g>
	<g>
		<g>
			<polygon class="st2" points="-712.6,1036.2 -712.6,1083.2 -722,1083.2 -743.4,1051 -743.4,1083.2 -752.8,1083.2 -752.8,1036.2 
				-743.4,1036.2 -722,1068.5 -722,1036.2 			"/>
			<polygon class="st2" points="-676.1,1043.8 -693.9,1043.8 -693.9,1055.6 -678.1,1055.6 -678.1,1063.1 -693.9,1063.1 
				-693.9,1075.5 -676.1,1075.5 -676.1,1083.2 -703.3,1083.2 -703.3,1036.2 -676.1,1036.2 			"/>
			<path class="st2" d="M-667.7,1036.2h9.4v29.1c0,6.5,3.5,9.8,9.5,9.8c6.1,0,9.6-3.4,9.6-9.8v-29.1h9.5v29
				c0,12.4-8.9,18.4-19.2,18.4c-10.3,0-18.8-6.1-18.8-18.4V1036.2z"/>
			<path class="st2" d="M-603.1,1036.2c11.3,0,16.9,6.5,16.9,14.4c0,5.7-3.2,11.5-10.7,13.5l11.2,19h-10.9l-10.4-18.3h-4.4v18.3
				h-9.4v-46.9H-603.1z M-603.4,1044h-7.9v13.8h7.9c5.2,0,7.6-2.8,7.6-7C-595.8,1046.7-598.2,1044-603.4,1044"/>
			<path class="st2" d="M-555.8,1083.7c-13.2,0-24.1-10-24.1-24.1c0-14.1,10.8-24,24.1-24c13.4,0,24,10,24,24
				C-531.8,1073.7-542.5,1083.7-555.8,1083.7 M-555.8,1075.2c8.5,0,14.3-6.1,14.3-15.7c0-9.6-5.9-15.5-14.3-15.5
				c-8.5,0-14.4,6-14.4,15.5C-570.2,1069.1-564.3,1075.2-555.8,1075.2"/>
			<polygon class="st1" points="-524.8,1036.2 -514.1,1036.2 -499.2,1071.1 -484.2,1036.2 -473.6,1036.2 -473.6,1083.2 -483,1083.2 
				-483,1052.6 -495.6,1083.2 -502.7,1083.2 -515.4,1052.6 -515.4,1083.2 -524.8,1083.2 			"/>
			<polygon class="st1" points="-437.1,1043.8 -454.9,1043.8 -454.9,1055.6 -439.1,1055.6 -439.1,1063.1 -454.9,1063.1 
				-454.9,1075.5 -437.1,1075.5 -437.1,1083.2 -464.3,1083.2 -464.3,1036.2 -437.1,1036.2 			"/>
			<polygon class="st1" points="-410.6,1067.4 -419.8,1083.2 -430.5,1083.2 -415.7,1059.5 -430.7,1036.2 -419.8,1036.2 -409.7,1052 
				-400.5,1036.2 -389.9,1036.2 -404.6,1059.8 -389.6,1083.2 -400.5,1083.2 			"/>
		</g>
		<g>
			<path class="st1" d="M-703.5,1094.4v10.9h-1.5v-10.9H-703.5z"/>
			<path class="st1" d="M-684.5,1105.2h-1.5l-6.1-8.6v8.6h-1.5v-10.9h1.5l6.1,8.6v-8.6h1.5V1105.2z"/>
			<path class="st1" d="M-673.8,1094.4l3.6,9.3l3.6-9.3h1.6l-4.3,10.9h-1.9l-4.3-10.9H-673.8z"/>
			<path class="st1" d="M-654.5,1094.4v10.9h-1.5v-10.9H-654.5z"/>
			<path class="st1" d="M-643.1,1095.5v3.7h4.5v1.1h-4.5v3.8h4.9v1.1h-6.5v-10.9h6.5v1.1H-643.1z"/>
			<path class="st1" d="M-622.5,1105.2l-3.1-4.4h-1.6v4.4h-1.5v-10.9h3.9c1.3,0,2.3,0.3,3,0.9c0.7,0.6,1,1.4,1,2.3
				c0,0.9-0.3,1.6-0.8,2.1c-0.5,0.5-1.3,0.9-2.3,1l3.2,4.5H-622.5z M-627.2,1099.8h2.2c1.7,0,2.6-0.7,2.6-2.1s-0.9-2.1-2.6-2.1h-2.2
				V1099.8z"/>
			<path class="st1" d="M-604.4,1094.4v1.1h-3.3v9.7h-1.5v-9.7h-3.3v-1.1H-604.4z"/>
			<path class="st1" d="M-593.9,1095.5v3.7h4.5v1.1h-4.5v3.8h4.9v1.1h-6.5v-10.9h6.5v1.1H-593.9z"/>
			<path class="st1" d="M-559.7,1094.4l-3.8,6.7v4.1h-1.5v-4.1l-3.9-6.7h1.8l2.9,5.3l2.9-5.3H-559.7z"/>
			<path class="st1" d="M-532.2,1102.7h-5.1l-1,2.5h-1.6l4.3-10.7h1.7l4.3,10.7h-1.6L-532.2,1102.7z M-532.7,1101.6l-2.1-5.5
				l-2.1,5.5H-532.7z"/>
			<path class="st1" d="M-511.7,1094.4v10.9h-1.5v-5h-5.9v5h-1.5v-10.9h1.5v4.7h5.9v-4.7H-511.7z"/>
			<path class="st1" d="M-493.5,1094.9c0.9,0.5,1.6,1.1,2.1,2c0.5,0.8,0.7,1.8,0.7,2.9s-0.2,2-0.7,2.9c-0.5,0.8-1.2,1.5-2.1,2
				c-0.9,0.5-1.8,0.7-2.9,0.7c-1.1,0-2.1-0.2-2.9-0.7c-0.9-0.5-1.6-1.1-2.1-2c-0.5-0.8-0.7-1.8-0.7-2.9s0.2-2,0.7-2.9
				c0.5-0.8,1.2-1.5,2.1-2c0.9-0.5,1.9-0.7,2.9-0.7C-495.3,1094.2-494.3,1094.4-493.5,1094.9z M-498.6,1096
				c-0.6,0.3-1.1,0.8-1.5,1.5c-0.4,0.6-0.5,1.4-0.5,2.3c0,0.9,0.2,1.6,0.5,2.2c0.4,0.6,0.9,1.1,1.5,1.5c0.6,0.3,1.4,0.5,2.2,0.5
				c0.8,0,1.5-0.2,2.2-0.5c0.6-0.3,1.1-0.8,1.5-1.5c0.4-0.6,0.5-1.4,0.5-2.2c0-0.9-0.2-1.6-0.5-2.3c-0.4-0.6-0.9-1.1-1.5-1.5
				c-0.6-0.3-1.4-0.5-2.2-0.5C-497.2,1095.5-497.9,1095.7-498.6,1096z"/>
			<path class="st1" d="M-474.9,1105.2l-3.1-4.4h-1.6v4.4h-1.5v-10.9h3.9c1.3,0,2.3,0.3,3,0.9c0.7,0.6,1,1.4,1,2.3
				c0,0.9-0.3,1.6-0.8,2.1c-0.5,0.5-1.3,0.9-2.3,1l3.2,4.5H-474.9z M-479.6,1099.8h2.2c1.7,0,2.6-0.7,2.6-2.1s-0.9-2.1-2.6-2.1h-2.2
				V1099.8z"/>
			<path class="st1" d="M-457.8,1105.2l-3.1-4.4h-1.6v4.4h-1.5v-10.9h3.9c1.3,0,2.3,0.3,3,0.9c0.7,0.6,1,1.4,1,2.3
				c0,0.9-0.3,1.6-0.8,2.1c-0.5,0.5-1.3,0.9-2.3,1l3.2,4.5H-457.8z M-462.5,1099.8h2.2c1.7,0,2.6-0.7,2.6-2.1s-0.9-2.1-2.6-2.1h-2.2
				V1099.8z"/>
			<path class="st1" d="M-440,1102.7h-5.1l-1,2.5h-1.6l4.3-10.7h1.7l4.3,10.7h-1.6L-440,1102.7z M-440.4,1101.6l-2.1-5.5l-2.1,5.5
				H-440.4z"/>
		</g>
	</g>
</g>
<line class="st4" x1="-887.9" y1="475" x2="-887.9" y2="1159.9"/>
<line class="st4" x1="-1519.2" y1="828" x2="-240" y2="828"/>
</svg>
